<svg width="24" height="24" viewBox="0 0 24 24" fill="none" xmlns="http://www.w3.org/2000/svg">
<g clip-path="url(#clip0_0_22)">
<path d="M22.0351 1.50558C20.7336 0.204147 18.8964 0 16.7146 0H6.77514C4.63159 0 2.79426 0.204147 1.49283 1.50558C0.191388 2.80703 0 4.63159 0 6.77514V16.7146C0 18.8964 0.191388 20.721 1.49283 22.0224C2.79426 23.3239 4.63159 23.5279 6.80066 23.5279H16.7146C18.8964 23.5279 20.7336 23.3239 22.0351 22.0224C23.3365 20.721 23.5279 18.8964 23.5279 16.7146V6.80065C23.5279 4.61883 23.3365 2.80703 22.0351 1.50558ZM21.4737 6.45616V17.0718C21.4737 18.386 21.3079 19.7513 20.5296 20.5168C19.7641 21.2951 18.386 21.4737 17.0718 21.4737H6.45616C5.14196 21.4737 3.76396 21.2951 2.98566 20.5168C2.2201 19.7513 2.05424 18.386 2.05424 17.0718V6.49443C2.05424 5.14196 2.2201 3.77672 2.98566 2.99841C3.76396 2.23285 5.15471 2.05424 6.49443 2.05424H17.0718C18.386 2.05424 19.7641 2.23285 20.5296 3.01117C21.3079 3.77672 21.4737 5.14196 21.4737 6.45616Z" fill="#101010"/>
<path d="M11.7763 18.1946C12.0442 18.1946 12.2611 18.118 12.5163 17.8628L16.7268 13.8054C16.9182 13.6139 17.0202 13.4099 17.0202 13.1291C17.0202 12.606 16.6247 12.236 16.1016 12.236C15.8464 12.236 15.5913 12.3381 15.3999 12.5422L13.4604 14.6091L12.7204 15.4002L12.797 13.4864V6.31571C12.797 5.77983 12.3249 5.33325 11.7763 5.33325C11.2276 5.33325 10.7683 5.77983 10.7683 6.31571V13.4864L10.8448 15.4002L10.1048 14.6091L8.15264 12.5422C7.97402 12.3381 7.69331 12.236 7.45088 12.236C6.915 12.236 6.53223 12.606 6.53223 13.1291C6.53223 13.4099 6.64706 13.6139 6.83845 13.8054L11.049 17.8628C11.3042 18.118 11.5211 18.1946 11.7763 18.1946Z" fill="#101010"/>
</g>
<defs>
<clipPath id="clip0_0_22">
<rect width="24" height="23.5407" fill="white"/>
</clipPath>
</defs>
</svg>
