<svg width="24" height="24" viewBox="0 0 24 24" fill="none" xmlns="http://www.w3.org/2000/svg">
<g clip-path="url(#clip0_0_74)">
<path d="M4.01279 23.5272H19.5144C22.1981 23.5272 23.5272 22.211 23.5272 19.5783V3.96167C23.5272 1.32907 22.1981 0 19.5144 0H4.01279C1.34186 0 0 1.32907 0 3.96167V19.5783C0 22.211 1.34186 23.5272 4.01279 23.5272ZM4.03835 21.4696C2.7604 21.4696 2.05752 20.7924 2.05752 19.4632V4.07668C2.05752 2.74761 2.7604 2.05752 4.03835 2.05752H19.4889C20.7541 2.05752 21.4696 2.74761 21.4696 4.07668V19.4632C21.4696 20.7924 20.7541 21.4696 19.4889 21.4696H4.03835Z" fill="#101010"/>
<path d="M18.2237 11.7443C18.2237 11.476 18.1342 11.2587 17.8786 11.0031L13.8275 6.78587C13.6231 6.59417 13.4186 6.49194 13.1502 6.49194C12.6262 6.49194 12.2556 6.8881 12.2556 7.42485C12.2556 7.66767 12.3579 7.93603 12.5623 8.11494L14.6326 10.0574L15.425 10.8114L13.5081 10.722H6.3259C5.78916 10.722 5.3291 11.1948 5.3291 11.7443C5.3291 12.2939 5.78916 12.7539 6.3259 12.7539H13.5081L15.425 12.6773L14.6326 13.4313L12.5623 15.3737C12.3579 15.5527 12.2556 15.8338 12.2556 16.0767C12.2556 16.6134 12.6262 16.9968 13.1502 16.9968C13.4186 16.9968 13.6231 16.8946 13.8275 16.7029L17.8786 12.4856C18.1342 12.23 18.2237 11.9999 18.2237 11.7443Z" fill="#101010"/>
</g>
<defs>
<clipPath id="clip0_0_74">
<rect width="24" height="23.5272" fill="white"/>
</clipPath>
</defs>
</svg>
