<svg width="155" height="42" viewBox="0 0 155 42" fill="none" xmlns="http://www.w3.org/2000/svg">
<path d="M53.2467 27.9962L46.4606 19.1179L52.8151 11.2678H48.6187L42.9597 18.7417V11.2678H39.5547V27.9962H42.9597V22.8548L44.2066 21.2998L49.0504 27.9962H53.2467Z" fill="#EC4432"/>
<path d="M57.5327 27.9962V19.9957C58.0363 19.2182 59.3791 18.6163 60.3862 18.6163C60.7219 18.6163 61.0097 18.6414 61.2255 18.6915V15.5816C59.7867 15.5816 58.348 16.4594 57.5327 17.5378V15.8826H54.4874V27.9962H57.5327Z" fill="#EC4432"/>
<path d="M68.3317 28.2972C70.1301 28.2972 71.9525 27.7203 73.1035 26.6168L71.7607 24.5602C71.0173 25.3126 69.6505 25.7641 68.6674 25.7641C66.7011 25.7641 65.5261 24.485 65.3343 22.9551H73.9428V22.2529C73.9428 18.2902 71.5928 15.5816 68.1398 15.5816C64.6149 15.5816 62.1451 18.4156 62.1451 21.9268C62.1451 25.8142 64.8068 28.2972 68.3317 28.2972ZM70.9933 20.7982H65.2864C65.4302 19.5944 66.2455 18.1147 68.1398 18.1147C70.1541 18.1147 70.9214 19.6446 70.9933 20.7982Z" fill="#EC4432"/>
<path d="M89.3069 27.9962L92.8318 15.8826H89.6666L87.5085 24.0336L84.9667 15.8826H82.2571L79.7153 24.0336L77.5572 15.8826H74.392L77.9169 27.9962H81.178L83.6239 19.7449L86.0697 27.9962H89.3069Z" fill="#EC4432"/>
<path d="M107.805 28.3222C110.706 28.3222 112.984 27.0682 114.615 25.1622V18.7417H106.989V21.8516H111.21V23.858C110.562 24.485 109.219 25.1371 107.805 25.1371C104.903 25.1371 102.793 22.8046 102.793 19.6446C102.793 16.4845 104.903 14.152 107.805 14.152C109.507 14.152 110.874 15.1552 111.593 16.334L114.423 14.7289C113.224 12.7475 111.138 10.9919 107.805 10.9919C103.129 10.9919 99.2921 14.3527 99.2921 19.6446C99.2921 24.9114 103.129 28.3222 107.805 28.3222Z" fill="#EC4432"/>
<path d="M127.868 27.9962V15.8826H124.823V24.0837C124.296 24.786 123.36 25.4631 122.185 25.4631C120.891 25.4631 120.051 24.9114 120.051 23.231V15.8826H117.006V24.485C117.006 26.8425 118.205 28.2972 120.747 28.2972C122.641 28.2972 124.032 27.3943 124.823 26.4663V27.9962H127.868Z" fill="#EC4432"/>
<path d="M133.698 27.9962V19.9957C134.201 19.2182 135.544 18.6163 136.551 18.6163C136.887 18.6163 137.175 18.6414 137.391 18.6915V15.5816C135.952 15.5816 134.513 16.4594 133.698 17.5378V15.8826H130.652V27.9962H133.698Z" fill="#EC4432"/>
<path d="M149.916 27.9962V15.8826H146.871V24.0837C146.343 24.786 145.408 25.4631 144.233 25.4631C142.938 25.4631 142.099 24.9114 142.099 23.231V15.8826H139.053V24.485C139.053 26.8425 140.252 28.2972 142.794 28.2972C144.689 28.2972 146.079 27.3943 146.871 26.4663V27.9962H149.916Z" fill="#EC4432"/>
<path d="M27.421 13.2925L17.4697 10.4083V7.90027L27.421 10.7845V13.2925Z" fill="#EC4432"/>
<path d="M7.51846 13.2925L17.4697 10.4083V7.90027L7.51846 10.7845V13.2925Z" fill="#F35544"/>
<path d="M21.9058 7.0851L17.4697 5.8311V0L21.9058 3.1977V7.0851Z" fill="#EC4432"/>
<path d="M13.0336 7.0851L17.4697 5.8311V0L13.0336 3.1977V7.0851Z" fill="#F35544"/>
<path fill-rule="evenodd" clip-rule="evenodd" d="M17.4691 12.4148L5 16.0514V28.0271C5 35.0432 13.4526 35.1122 17.0843 39.7281C17.2147 39.7787 17.343 39.8284 17.4691 39.8774C17.5951 39.8284 17.7234 39.7787 17.8538 39.7281C21.4256 35.363 29.9381 35.0432 29.9381 28.0271V16.0514L17.4691 12.4148Z" fill="#EC4432"/>
<path d="M17.4691 12.4148L5 16.0514V28.0271C5 35.0432 13.4526 35.1122 17.0843 39.7281C17.2147 39.7787 17.343 39.8284 17.4691 39.8774V12.4148Z" fill="#F35544"/>
<path fill-rule="evenodd" clip-rule="evenodd" d="M17.4696 30.2213C20.7141 30.2213 23.3444 27.4703 23.3444 24.0767C23.3444 20.6832 20.7141 17.9321 17.4696 17.9321C14.225 17.9321 11.5947 20.6832 11.5947 24.0767C11.5947 27.4703 14.225 30.2213 17.4696 30.2213ZM17.4696 27.5879C19.3236 27.5879 20.8266 26.0159 20.8266 24.0767C20.8266 22.1375 19.3236 20.5655 17.4696 20.5655C15.6155 20.5655 14.1125 22.1375 14.1125 24.0767C14.1125 26.0159 15.6155 27.5879 17.4696 27.5879Z" fill="white"/>
<path d="M20.8264 24.0772C20.8264 26.0164 19.3234 27.5885 17.4694 27.5885C15.6153 27.5885 14.1123 26.0164 14.1123 24.0772C14.1123 22.1381 15.6153 20.566 17.4694 20.566C19.3234 20.566 20.8264 22.1381 20.8264 24.0772Z" fill="#A61E0F"/>
<path d="M12.9395 26.9036C13.4545 26.3649 14.2896 26.3649 14.8046 26.9036C15.3197 27.4423 15.3197 28.3157 14.8046 28.8544L11.1249 32.703C10.6099 33.2417 9.77485 33.2417 9.25981 32.703C8.74477 32.1644 8.74477 31.291 9.25981 30.7523L12.9395 26.9036Z" fill="white"/>
</svg>
