<svg width="155" height="42" viewBox="0 0 155 42" fill="none" xmlns="http://www.w3.org/2000/svg">
<path d="M70.1257 27.7761L65.3749 14.642C65.2932 14.4399 65.2425 14.2268 65.2246 14.0097C65.2331 13.7074 65.3619 13.4208 65.5827 13.2125C65.8035 13.0043 66.0984 12.8914 66.4028 12.8987C67.0082 12.8987 67.4023 13.2914 67.5838 13.8604L71.5193 25.1759L75.4806 13.8228C75.662 13.2847 76.0223 12.8933 76.629 12.8933H76.7509C77.3874 12.8933 77.7815 13.2861 77.9616 13.8228L81.889 25.1705L85.8882 13.7945C86.0399 13.313 86.3703 12.8933 87.0055 12.8933C87.3015 12.8849 87.5888 12.9935 87.8043 13.1953C88.0199 13.397 88.1461 13.6754 88.1553 13.9694C88.1365 14.1863 88.0859 14.3993 88.0049 14.6016L83.2243 27.7653C82.9792 28.454 82.4957 28.8132 81.954 28.8132H81.8606C81.2566 28.8132 80.8015 28.454 80.5876 27.7653L76.6886 16.6005L72.753 27.7653C72.5431 28.454 72.0867 28.8132 71.4827 28.8132H71.4204C70.8462 28.8132 70.3641 28.454 70.1217 27.7653" fill="black"/>
<path d="M104.746 14.0447C104.744 13.7382 104.863 13.4431 105.079 13.2233C105.294 13.0036 105.587 12.8768 105.896 12.8704C106.052 12.8677 106.207 12.8962 106.352 12.9542C106.496 13.0123 106.628 13.0987 106.738 13.2083C106.848 13.3179 106.935 13.4484 106.994 13.5921C107.052 13.7358 107.081 13.8898 107.078 14.0447V16.7108C108.231 14.1201 110.782 12.8987 112.474 12.8987C113.171 12.8987 113.629 13.4098 113.629 14.0703C113.636 14.3593 113.534 14.6405 113.343 14.8582C113.152 15.076 112.885 15.2144 112.596 15.246C109.563 15.6078 107.078 17.865 107.078 22.3538V27.6308C107.078 27.938 106.955 28.2326 106.737 28.4498C106.518 28.667 106.221 28.789 105.912 28.789C105.603 28.789 105.306 28.667 105.088 28.4498C104.869 28.2326 104.746 27.938 104.746 27.6308V14.0447Z" fill="black"/>
<path d="M121.116 28.9502C116.895 28.9502 113.452 25.7017 113.452 20.9345V20.8739C113.452 16.4349 116.567 12.8608 120.818 12.8608C125.359 12.8608 127.944 16.5829 127.944 20.6627C127.946 20.8032 127.919 20.9426 127.866 21.0728C127.813 21.203 127.735 21.3216 127.635 21.4216C127.536 21.5216 127.418 21.6011 127.287 21.6556C127.157 21.71 127.017 21.7383 126.876 21.7389H115.771C116.093 25.0748 118.439 26.9513 121.173 26.9513C123.069 26.9513 124.467 26.2075 125.597 25.1636C125.738 25.0319 125.915 24.9441 126.105 24.9111C126.296 24.8782 126.492 24.9016 126.669 24.9784C126.846 25.0552 126.997 25.182 127.102 25.3431C127.208 25.5042 127.263 25.6925 127.262 25.8846C127.26 26.0268 127.227 26.1669 127.164 26.2949C127.102 26.423 127.012 26.5359 126.901 26.6258C125.448 28.0248 123.726 28.9502 121.115 28.9502H121.116ZM125.657 20.0386C125.42 17.2393 123.814 14.7925 120.757 14.7925C118.084 14.7925 116.062 17.0254 115.771 20.0386H125.657Z" fill="black"/>
<path d="M88.2031 24.1266V24.066C88.2031 20.7946 90.9198 19.0526 94.8797 19.0526C96.5057 19.0383 98.1251 19.2608 99.6861 19.7131V19.175C99.6861 16.3838 97.958 14.9432 95.0314 14.9432C93.4591 14.9432 92.5436 15.1436 91.3952 15.6507C91.2613 15.7056 91.1187 15.7366 90.974 15.7422C90.7068 15.741 90.4504 15.6373 90.2584 15.4529C90.0664 15.2684 89.9535 15.0173 89.9434 14.7522C89.9298 14.5446 89.9847 14.3382 90.0998 14.1644C90.2149 13.9906 90.3839 13.8588 90.5812 13.789C92.1183 13.1259 93.2776 12.9053 95.2711 12.9053C97.4772 12.9053 99.1687 13.4729 100.316 14.615C101.375 15.6655 101.921 17.1708 101.921 19.1454V27.7114C101.926 27.8604 101.901 28.0091 101.847 28.1483C101.793 28.2875 101.712 28.4143 101.607 28.521C101.502 28.6277 101.376 28.7121 101.237 28.769C101.098 28.8259 100.949 28.8542 100.799 28.8521C100.654 28.8579 100.509 28.8343 100.373 28.7827C100.238 28.7311 100.114 28.6525 100.01 28.5518C99.9055 28.4511 99.8231 28.3304 99.7674 28.197C99.7118 28.0636 99.6841 27.9203 99.6861 27.776V26.2963C98.5959 27.7087 96.7825 28.9691 94.0374 28.9691C91.1338 28.9691 88.2031 27.3186 88.2031 24.1373V24.1266ZM99.7145 22.9361V21.4255C98.2224 20.9883 96.6751 20.765 95.1194 20.7623C92.1928 20.7623 90.5582 22.0254 90.5582 23.9759V24.0364C90.5582 25.9842 92.3716 27.1303 94.4856 27.1303C97.3553 27.1303 99.7131 25.3816 99.7131 22.9294" fill="black"/>
<path d="M27.7915 13.8725C27.673 13.6049 27.5017 13.3636 27.2877 13.1629C27.0738 12.9622 26.8215 12.8062 26.5457 12.7039C26.27 12.6017 25.9764 12.5555 25.6824 12.5679C25.3883 12.5803 25.0998 12.6511 24.8338 12.7762C24.5625 12.8918 24.3179 13.0613 24.1149 13.2742C23.9119 13.4871 23.7549 13.739 23.6535 14.0143C23.552 14.2897 23.5083 14.5827 23.5249 14.8754C23.5416 15.1682 23.6183 15.4545 23.7503 15.7167L28.707 26.4201C29.4857 28.0988 30.3078 28.9759 31.8503 28.9759C33.4984 28.9759 34.2162 28.0154 34.9949 26.4201C34.9949 26.4201 39.3218 17.0645 39.3638 16.969C39.4105 16.8444 39.4963 16.738 39.6084 16.6653C39.7205 16.5927 39.8532 16.5577 39.9868 16.5655C40.0776 16.5662 40.1674 16.5847 40.251 16.6199C40.3346 16.6551 40.4104 16.7063 40.4741 16.7707C40.5377 16.835 40.588 16.9112 40.622 16.9949C40.6559 17.0785 40.673 17.168 40.6721 17.2582V26.4053C40.6721 27.8137 41.4589 28.9705 42.9743 28.9705C44.4898 28.9705 45.305 27.8137 45.305 26.4053V18.9343C45.305 17.491 46.3478 16.5534 47.7671 16.5534C49.1864 16.5534 50.1303 17.5205 50.1303 18.9343V26.4134C50.1303 27.8217 50.9212 28.9786 52.4326 28.9786C53.944 28.9786 54.7674 27.8217 54.7674 26.4134V18.9343C54.7674 17.491 55.8061 16.5534 57.2268 16.5534C58.6474 16.5534 59.5913 17.5205 59.5913 18.9343V26.4134C59.5913 27.8217 60.3795 28.9786 61.8936 28.9786C63.4077 28.9786 64.227 27.8217 64.227 26.4134V17.8932C64.227 14.7616 61.6945 12.5677 58.642 12.5677C55.5894 12.5677 53.688 14.6634 53.688 14.6634C52.675 13.3573 51.2761 12.5704 48.9101 12.5704C46.4142 12.5704 44.2298 14.6634 44.2298 14.6634C43.214 13.3573 41.4873 12.5704 40.0559 12.5704C37.8443 12.5704 36.0878 13.5362 35.0166 15.9709L31.8489 23.3854L27.7861 13.8725" fill="black"/>
<path d="M128.133 14.8007V14.7872C128.125 14.5308 128.17 14.2755 128.263 14.0365C128.357 13.7974 128.498 13.5793 128.678 13.3952C128.857 13.211 129.072 13.0645 129.31 12.9643C129.548 12.8641 129.803 12.8122 130.062 12.8116C130.32 12.8111 130.576 12.862 130.814 12.9612C131.052 13.0604 131.268 13.206 131.448 13.3894C131.629 13.5728 131.771 13.7902 131.865 14.0289C131.96 14.2676 132.005 14.5227 131.999 14.7792V14.7872C132.001 15.2982 131.798 15.7889 131.435 16.1514C131.072 16.5138 130.58 16.7184 130.065 16.7202C129.811 16.7216 129.559 16.673 129.324 16.577C129.089 16.481 128.875 16.3397 128.695 16.1612C128.516 15.9827 128.373 15.7705 128.277 15.5369C128.18 15.3034 128.131 15.0532 128.133 14.8007ZM131.628 14.7872C131.628 14.3752 131.463 13.98 131.17 13.6886C130.877 13.3973 130.479 13.2336 130.064 13.2336C129.649 13.2336 129.251 13.3973 128.958 13.6886C128.664 13.98 128.5 14.3752 128.5 14.7872V14.7993C128.497 15.0048 128.535 15.2087 128.613 15.3992C128.69 15.5897 128.805 15.7629 128.951 15.9086C129.097 16.0543 129.271 16.1696 129.462 16.2478C129.653 16.326 129.858 16.3654 130.065 16.3638C130.273 16.3632 130.478 16.3219 130.669 16.2423C130.86 16.1626 131.034 16.0462 131.179 15.8996C131.325 15.753 131.44 15.5793 131.518 15.3884C131.595 15.1975 131.634 14.9932 131.632 14.7872" fill="black"/>
<path d="M129.33 14.0298C129.33 14.0029 129.335 13.9763 129.345 13.9513C129.355 13.9264 129.37 13.9037 129.389 13.8844C129.408 13.8652 129.43 13.8498 129.455 13.8392C129.48 13.8286 129.506 13.823 129.534 13.8226H130.18C130.278 13.8164 130.377 13.8302 130.47 13.8632C130.564 13.8963 130.649 13.948 130.721 14.015C130.776 14.0702 130.82 14.136 130.848 14.2084C130.876 14.2809 130.889 14.3584 130.886 14.436V14.4428C130.893 14.5645 130.861 14.6852 130.794 14.7872C130.726 14.8891 130.628 14.9669 130.513 15.0091L130.798 15.3548C130.838 15.3973 130.861 15.4527 130.863 15.5108C130.863 15.536 130.858 15.5609 130.848 15.584C130.838 15.6072 130.823 15.6281 130.805 15.6456C130.786 15.6631 130.765 15.6768 130.741 15.686C130.718 15.6952 130.692 15.6997 130.667 15.6991C130.628 15.6981 130.589 15.6882 130.554 15.6703C130.519 15.6523 130.489 15.6268 130.465 15.5956L130.066 15.0911H129.737V15.4947C129.737 15.5493 129.715 15.6016 129.676 15.6402C129.637 15.6788 129.584 15.7005 129.529 15.7005C129.475 15.7005 129.422 15.6788 129.383 15.6402C129.344 15.6016 129.322 15.5493 129.322 15.4947L129.33 14.0298ZM130.161 14.7252C130.361 14.7252 130.472 14.623 130.472 14.4562C130.472 14.284 130.354 14.1872 130.155 14.1872H129.749V14.7252H130.161Z" fill="black"/>
</svg>
